<svg width="311" height="331" viewBox="0 0 311 331" fill="none" xmlns="http://www.w3.org/2000/svg">
<rect x="-744" y="-263" width="1278" height="3125" fill="black"/>
<circle cx="163.5" cy="232.5" r="1.5" fill="#D8014E"/>
<rect x="1.25" y="1.25" width="308.5" height="308.5" rx="154.25" fill="black" stroke="#777777" stroke-width="0.5"/>
<line x1="139.5" y1="234" x2="139.5" y2="260" stroke="#222222"/>
<line x1="88.5" y1="108" x2="88.5" y2="183" stroke="#222222"/>
<line x1="208.5" y1="58" x2="208.5" y2="157" stroke="#222222"/>
<line x1="203.5" y1="132" x2="203.5" y2="183" stroke="#222222"/>
<path d="M158.854 82.6464C158.658 82.4512 158.342 82.4512 158.146 82.6464L154.964 85.8284C154.769 86.0237 154.769 86.3403 154.964 86.5355C155.16 86.7308 155.476 86.7308 155.672 86.5355L158.5 83.7071L161.328 86.5355C161.524 86.7308 161.84 86.7308 162.036 86.5355C162.231 86.3403 162.231 86.0237 162.036 85.8284L158.854 82.6464ZM158 83L158 183L159 183L159 83L158 83Z" fill="white"/>
<path d="M149.354 112.646C149.158 112.451 148.842 112.451 148.646 112.646L145.464 115.828C145.269 116.024 145.269 116.34 145.464 116.536C145.66 116.731 145.976 116.731 146.172 116.536L149 113.707L151.828 116.536C152.024 116.731 152.34 116.731 152.536 116.536C152.731 116.34 152.731 116.024 152.536 115.828L149.354 112.646ZM148.5 113L148.5 166L149.5 166L149.5 113L148.5 113Z" fill="white"/>
<line x1="83.5" y1="108" x2="83.5" y2="183" stroke="#222222"/>
<path d="M168.854 56.6464C168.658 56.4512 168.342 56.4512 168.146 56.6464L164.964 59.8284C164.769 60.0237 164.769 60.3403 164.964 60.5355C165.16 60.7308 165.476 60.7308 165.672 60.5355L168.5 57.7071L171.328 60.5355C171.524 60.7308 171.84 60.7308 172.036 60.5355C172.231 60.3403 172.231 60.0237 172.036 59.8284L168.854 56.6464ZM168 57L168 133L169 133L169 57L168 57Z" fill="white"/>
<line x1="103.5" y1="183" x2="103.5" y2="234" stroke="#222222"/>
<line x1="93.5" y1="157" x2="93.5" y2="209" stroke="#222222"/>
<line x1="113.5" y1="183" x2="113.5" y2="234" stroke="#222222"/>
<line x1="153.5" y1="183" x2="153.5" y2="260" stroke="#222222"/>
<line x1="148.5" y1="183" x2="148.5" y2="209" stroke="#222222"/>
<line x1="130.5" y1="183" x2="130.5" y2="234" stroke="#222222"/>
<path d="M251.006 135.072C252.473 135.072 253.571 133.902 253.571 131.85C253.571 129.798 252.473 128.628 251.006 128.628C249.53 128.628 248.432 129.798 248.432 131.85C248.432 133.902 249.53 135.072 251.006 135.072ZM251.006 134.271C250.016 134.271 249.332 133.461 249.332 131.85C249.332 130.239 250.016 129.429 251.006 129.429C251.987 129.429 252.671 130.239 252.671 131.85C252.671 133.461 251.987 134.271 251.006 134.271ZM254.923 135.054C255.247 135.054 255.517 134.793 255.517 134.433C255.517 134.073 255.247 133.821 254.923 133.821C254.59 133.821 254.311 134.073 254.311 134.433C254.311 134.793 254.59 135.054 254.923 135.054ZM258.837 135.072C260.304 135.072 261.402 133.902 261.402 131.85C261.402 129.798 260.304 128.628 258.837 128.628C257.361 128.628 256.263 129.798 256.263 131.85C256.263 133.902 257.361 135.072 258.837 135.072ZM258.837 134.271C257.847 134.271 257.163 133.461 257.163 131.85C257.163 130.239 257.847 129.429 258.837 129.429C259.818 129.429 260.502 130.239 260.502 131.85C260.502 133.461 259.818 134.271 258.837 134.271ZM263.437 134.217L265.363 132.363C266.218 131.544 266.398 130.995 266.398 130.383C266.398 129.303 265.552 128.628 264.238 128.628C263.257 128.628 262.42 128.979 261.934 129.582L262.546 130.113C262.933 129.645 263.482 129.429 264.157 129.429C265.039 129.429 265.498 129.825 265.498 130.473C265.498 130.869 265.372 131.265 264.706 131.913L262.141 134.388V135H266.668V134.217H263.437ZM270.099 131.175C269.316 131.175 268.65 131.463 268.29 132.003C268.281 131.922 268.281 131.85 268.281 131.778C268.281 130.203 269.1 129.402 270.378 129.402C270.828 129.402 271.26 129.483 271.584 129.699L271.926 128.997C271.521 128.745 270.954 128.628 270.36 128.628C268.596 128.628 267.381 129.78 267.381 131.931C267.381 133.938 268.335 135.072 270.027 135.072C271.278 135.072 272.259 134.298 272.259 133.083C272.259 131.922 271.35 131.175 270.099 131.175ZM269.991 134.343C269.019 134.343 268.497 133.776 268.497 133.128C268.497 132.435 269.091 131.904 269.946 131.904C270.828 131.904 271.386 132.381 271.386 133.119C271.386 133.866 270.81 134.343 269.991 134.343ZM272.712 128.7V130.608H273.576V129.483H276.456L273.963 135H274.917L277.464 129.312V128.7H272.712ZM283.145 132.678H281.948V131.31H281.102V132.678H278.681L281.768 128.7H280.796L277.574 132.822V133.452H281.075V135H281.948V133.452H283.145V132.678Z" fill="white"/>
<line x1="168.5" y1="133" x2="168.5" y2="157" stroke="#D9014F" stroke-width="3"/>
<line x1="158.5" y1="132" x2="158.5" y2="183" stroke="#D9014F" stroke-width="3"/>
<line x1="148.5" y1="162" x2="148.5" y2="183" stroke="#D9014F" stroke-width="3"/>
<g filter="url(#filter0_f)">
<circle cx="168.5" cy="132.5" r="12.5" fill="#D9014F"/>
</g>
<circle cx="168.5" cy="132.5" r="3.5" fill="white"/>
<path d="M236.601 132L242.268 123.5H291.5V140.5H242.268L236.601 132Z" stroke="white"/>
<circle cx="116.5" cy="23.5" r="1.5" fill="#D8014E"/>
<path d="M267.345 22.6404C267.146 22.4485 266.83 22.454 266.638 22.6526L263.511 25.8889C263.319 26.0875 263.325 26.404 263.523 26.5959C263.722 26.7878 264.038 26.7823 264.23 26.5837L267.01 23.707L269.886 26.4863C270.085 26.6782 270.402 26.6727 270.593 26.4741C270.785 26.2755 270.78 25.959 270.581 25.7671L267.345 22.6404ZM72.5 230C72.5 177.047 115.296 134.122 168.084 134.122V133.122C114.741 133.122 71.5 176.497 71.5 230H72.5ZM168.084 134.122C193.386 134.122 212.277 127.179 226.37 116.739C240.457 106.303 249.718 92.396 255.806 78.5118C261.893 64.6284 264.815 50.752 266.215 40.3514C266.916 35.1498 267.236 30.8142 267.382 27.7772C267.455 26.2586 267.483 25.0645 267.494 24.2489C267.5 23.8411 267.5 23.5279 267.5 23.3161C267.5 23.2102 267.499 23.1296 267.498 23.0752C267.498 23.048 267.498 23.0273 267.498 23.0133C267.498 23.0063 267.498 23.001 267.498 22.9973C267.497 22.9955 267.497 22.994 267.497 22.9931C267.497 22.992 267.497 22.9914 266.997 23C266.498 23.0086 266.498 23.0088 266.498 23.0094C266.498 23.0102 266.498 23.0112 266.498 23.0128C266.498 23.0158 266.498 23.0206 266.498 23.027C266.498 23.0398 266.498 23.0592 266.499 23.0852C266.499 23.1371 266.5 23.2152 266.5 23.3186C266.5 23.5254 266.5 23.8333 266.494 24.2358C266.484 25.0406 266.455 26.2231 266.383 27.7294C266.239 30.742 265.921 35.0488 265.224 40.2179C263.832 50.5589 260.929 64.3381 254.89 78.1102C248.852 91.8815 239.686 105.63 225.775 115.936C211.869 126.237 193.191 133.122 168.084 133.122V134.122Z" fill="white"/>
<path d="M83 211.254L152.75 224.528V329.75H13.25V224.528L83 211.254Z" fill="#1C1C1C" stroke="#777777" stroke-width="0.5"/>
<rect x="71.5" y="258.5" width="23" height="71" fill="black" stroke="#777777"/>
<path d="M71.758 124.978C71.758 123.606 72.3222 122.294 73.3184 121.349L79.7431 115.26C81.6718 113.432 84.6935 113.432 86.6222 115.26L93.0469 121.349C94.0431 122.294 94.6073 123.606 94.6073 124.978V175.378L153 220.762V230.714L94.6073 215.188V282.069L104.445 293.535V305L83.1827 296.719L61.9201 305V293.535L71.758 282.069V215.188L14 230.714L14 220.762L71.758 175.378V124.978Z" fill="#C4C4C4"/>
<path d="M71.1791 125.029C71.1791 123.627 71.7678 122.289 72.8017 121.342L79.6226 115.094C81.5339 113.343 84.4661 113.343 86.3774 115.094L93.1983 121.342C94.2322 122.289 94.8209 123.627 94.8209 125.029V282.069L105 293.535V305L83 296.719L61 305L61 293.535L71.1791 282.069V125.029Z" fill="#EDEDED"/>
<rect x="-744" y="-263" width="1278" height="3125" stroke="white" stroke-width="2"/>
<defs>
<filter id="filter0_f" x="141" y="105" width="55" height="55" filterUnits="userSpaceOnUse" color-interpolation-filters="sRGB">
<feFlood flood-opacity="0" result="BackgroundImageFix"/>
<feBlend mode="normal" in="SourceGraphic" in2="BackgroundImageFix" result="shape"/>
<feGaussianBlur stdDeviation="7.5" result="effect1_foregroundBlur"/>
</filter>
</defs>
</svg>
