<svg width="20" height="8" viewBox="0 0 20 8" fill="none" xmlns="http://www.w3.org/2000/svg">
<rect x="-358" y="-502" width="1278" height="3125" fill="black"/>
<rect x="-357.75" y="-257.75" width="1278.5" height="348.5" fill="black" stroke="#777777" stroke-width="0.5"/>
<mask id="path-3-inside-1" fill="white">
<path fill-rule="evenodd" clip-rule="evenodd" d="M233.548 -258C198.535 -208.748 177.947 -148.526 177.947 -83.4998C177.947 -18.4739 198.535 41.7481 233.547 91H-358V-258H233.548Z"/>
</mask>
<path fill-rule="evenodd" clip-rule="evenodd" d="M233.548 -258C198.535 -208.748 177.947 -148.526 177.947 -83.4998C177.947 -18.4739 198.535 41.7481 233.547 91H-358V-258H233.548Z" fill="#0B0B0B"/>
<path d="M233.548 -258L233.955 -257.71L234.516 -258.5H233.548V-258ZM233.547 91V91.5H234.516L233.955 90.7103L233.547 91ZM-358 91H-358.5V91.5H-358V91ZM-358 -258V-258.5H-358.5V-258H-358ZM178.447 -83.4998C178.447 -148.419 199.001 -208.54 233.955 -257.71L233.14 -258.29C198.069 -208.956 177.447 -148.633 177.447 -83.4998H178.447ZM233.955 90.7103C199 41.5402 178.447 -18.5811 178.447 -83.4998H177.447C177.447 -18.3667 198.069 41.9559 233.14 91.2897L233.955 90.7103ZM233.547 90.5H-358V91.5H233.547V90.5ZM-357.5 91V-258H-358.5V91H-357.5ZM-358 -257.5H233.548V-258.5H-358V-257.5Z" fill="#444444" fill-opacity="0.92" mask="url(#path-3-inside-1)"/>
<path d="M-358.5 -257.5H920.5V90.5H-358.5V-257.5Z" stroke="#777777"/>
<rect x="-95" y="-11" width="152" height="33" fill="#D8014E"/>
<path d="M19.3536 4.35355C19.5488 4.15829 19.5488 3.84171 19.3536 3.64644L16.1716 0.464465C15.9763 0.269203 15.6597 0.269203 15.4645 0.464465C15.2692 0.659727 15.2692 0.976309 15.4645 1.17157L18.2929 4L15.4645 6.82843C15.2692 7.02369 15.2692 7.34027 15.4645 7.53553C15.6597 7.73079 15.9763 7.73079 16.1716 7.53553L19.3536 4.35355ZM4.37114e-08 4.5L19 4.5L19 3.5L-4.37114e-08 3.5L4.37114e-08 4.5Z" fill="white"/>
<rect x="-358" y="-502" width="1278" height="3125" stroke="white" stroke-width="2"/>
</svg>
